<svg width="95px" height="78px" viewBox="0 0 95 78" version="1.1" xmlns="http://www.w3.org/2000/svg" xmlns:xlink="http://www.w3.org/1999/xlink">
    <g id="Homepage" stroke="none" stroke-width="1" fill="none" fill-rule="evenodd">
        <g id="Weather-App_Searchterm_result-01_mobile" transform="translate(-20.000000, -54.000000)" fill="#2B1202">
            <g id="Logo" transform="translate(20.000000, 54.000000)">
                <g id="whatweather" fill-rule="nonzero">
                    <path d="M57.2174088,15.6307998 C57.4115134,15.6307998 57.6050851,15.651114 57.7949609,15.6914104 C59.1977548,15.9891187 60.1274,17.2955934 59.985781,18.6904563 L59.9388192,18.9903729 L55.2985579,40.8551639 C54.8637572,42.9039334 53.0548898,44.3692002 50.9604906,44.3692002 C48.9874117,44.3692002 47.2575115,43.0963241 46.6523594,41.2490286 L46.5465868,40.8721176 L43.5192976,27.9867329 L40.5527495,40.8780153 C40.0825453,42.9213111 38.263625,44.3692002 36.1669252,44.3692002 C34.208527,44.3692002 32.5001581,43.0853543 31.9358216,41.2413604 L31.838473,40.8653074 L30.0021321,32.2447533 L28.1766925,40.8551639 C27.7690669,42.7758853 26.1537654,44.1837625 24.2277132,44.3522444 L23.8386252,44.3692002 C21.8655463,44.3692002 20.1356462,43.0963241 19.530494,41.2490286 L19.4247214,40.8721176 L16.3974322,27.9867329 L13.4308841,40.8780153 C12.9606799,42.9213111 11.1417596,44.3692002 9.04505987,44.3692002 C7.08666166,44.3692002 5.3782927,43.0853543 4.81395626,41.2413604 L4.71660763,40.8653074 L0.0611249131,18.9995563 C0.0204872583,18.8086904 0,18.6140855 0,18.4189414 C0,16.8790933 1.24829353,15.6307998 2.78814165,15.6307998 C4.65845682,15.6307998 6.27830425,16.8837778 6.76925106,18.6574039 L6.85212814,19.0188542 L9.52863872,33.6515138 L12.846905,18.503628 C13.2143561,16.826214 14.6999811,15.6307998 16.4171701,15.6307998 C18.0128309,15.6307998 19.4097328,16.6598045 19.8997687,18.1498578 L19.9964334,18.5016421 L23.3649153,33.6515138 L26.0432016,19.0091463 C26.3352234,17.4126439 27.5239888,16.1724534 29.0321944,15.7698598 C29.2170602,15.7100196 29.4095709,15.6681619 29.6080416,15.6469057 L30.0955434,15.6307998 C30.289648,15.6307998 30.4832197,15.651114 30.6730955,15.6914104 L30.9399788,15.7618382 C32.3419904,16.121088 33.4749711,17.202179 33.8814822,18.6231707 L33.9739935,19.0188542 L36.6505041,33.6515138 L39.9687704,18.503628 C40.3362215,16.826214 41.8218465,15.6307998 43.5390355,15.6307998 C45.1346963,15.6307998 46.5315982,16.6598045 47.0216341,18.1498578 L47.1182988,18.5016421 L50.4867807,33.6515138 L53.1650669,19.0091463 C53.5229958,17.0523255 55.2281223,15.6307998 57.2174088,15.6307998 Z" id="Path"></path>
                </g>
            </g>
        </g>
    </g>
</svg>